<svg height="19.999998092651367" overflow="visible" viewBox="0 0 19.454246520996087 19.999998092651367" width="19.454246520996087" xmlns="http://www.w3.org/2000/svg"><g><defs><path id="path-168361850329611097" d="M17.15933,10.98c0.04,-0.32 0.07,-0.64 0.07,-0.98c0,-0.34 -0.03,-0.66 -0.07,-0.98l2.11,-1.65c0.19,-0.15 0.24,-0.42 0.12,-0.64l-2,-3.46c-0.12,-0.22 -0.39,-0.3 -0.61,-0.22l-2.49,1c-0.52,-0.4 -1.08,-0.73 -1.69,-0.98l-0.38,-2.65c-0.03,-0.24 -0.24,-0.42 -0.49,-0.42h-4c-0.25,0 -0.46,0.18 -0.49,0.42l-0.38,2.65c-0.61,0.25 -1.17,0.59 -1.69,0.98l-2.49,-1c-0.23,-0.09 -0.49,0 -0.61,0.22l-2,3.46c-0.13,0.22 -0.07,0.49 0.12,0.64l2.11,1.65c-0.04,0.32 -0.07,0.65 -0.07,0.98c0,0.33 0.03,0.66 0.07,0.98l-2.11,1.65c-0.19,0.15 -0.24,0.42 -0.12,0.64l2,3.46c0.12,0.22 0.39,0.3 0.61,0.22l2.49,-1c0.52,0.4 1.08,0.73 1.69,0.98l0.38,2.65c0.03,0.24 0.24,0.42 0.49,0.42h4c0.25,0 0.46,-0.18 0.49,-0.42l0.38,-2.65c0.61,-0.25 1.17,-0.59 1.69,-0.98l2.49,1c0.23,0.09 0.49,0 0.61,-0.22l2,-3.46c0.12,-0.22 0.07,-0.49 -0.12,-0.64zM9.72933,13.5c-1.93,0 -3.5,-1.57 -3.5,-3.5c0,-1.93 1.57,-3.5 3.5,-3.5c1.93,0 3.5,1.57 3.5,3.5c0,1.93 -1.57,3.5 -3.5,3.5z"></path></defs><path d="M17.15933,10.98c0.04,-0.32 0.07,-0.64 0.07,-0.98c0,-0.34 -0.03,-0.66 -0.07,-0.98l2.11,-1.65c0.19,-0.15 0.24,-0.42 0.12,-0.64l-2,-3.46c-0.12,-0.22 -0.39,-0.3 -0.61,-0.22l-2.49,1c-0.52,-0.4 -1.08,-0.73 -1.69,-0.98l-0.38,-2.65c-0.03,-0.24 -0.24,-0.42 -0.49,-0.42h-4c-0.25,0 -0.46,0.18 -0.49,0.42l-0.38,2.65c-0.61,0.25 -1.17,0.59 -1.69,0.98l-2.49,-1c-0.23,-0.09 -0.49,0 -0.61,0.22l-2,3.46c-0.13,0.22 -0.07,0.49 0.12,0.64l2.11,1.65c-0.04,0.32 -0.07,0.65 -0.07,0.98c0,0.33 0.03,0.66 0.07,0.98l-2.11,1.65c-0.19,0.15 -0.24,0.42 -0.12,0.64l2,3.46c0.12,0.22 0.39,0.3 0.61,0.22l2.49,-1c0.52,0.4 1.08,0.73 1.69,0.98l0.38,2.65c0.03,0.24 0.24,0.42 0.49,0.42h4c0.25,0 0.46,-0.18 0.49,-0.42l0.38,-2.65c0.61,-0.25 1.17,-0.59 1.69,-0.98l2.49,1c0.23,0.09 0.49,0 0.61,-0.22l2,-3.46c0.12,-0.22 0.07,-0.49 -0.12,-0.64zM9.72933,13.5c-1.93,0 -3.5,-1.57 -3.5,-3.5c0,-1.93 1.57,-3.5 3.5,-3.5c1.93,0 3.5,1.57 3.5,3.5c0,1.93 -1.57,3.5 -3.5,3.5z" style="stroke-width: 0; stroke-linecap: butt; stroke-linejoin: miter; fill: rgb(23, 43, 77);" transform="translate(-1.7763568394002505e-15, 0) rotate(0)"></path></g></svg>