<svg height="16" overflow="visible" viewBox="0 0 16 16" width="16" xmlns="http://www.w3.org/2000/svg"><g><defs><path id="path-168361609982252" d="M14 11.333333333333332 C14 11.333333333333332 10.333333333333332 10.666666666666666 10.333333333333332 10.666666666666666 C10 10 10.001333333333333 9.709999999999999 10 9.333333333333332 C10.333333333333332 9 11 8.666666666666666 11 8.333333333333332 C11.333333333333332 7.333333333333333 11.333333333333332 6.666666666666666 11.333333333333332 6.666666666666666 C11.506 6.417333333333333 12 6 12 5.333333333333333 C12 4.666666666666666 11.333333333333332 4 11.333333333333332 3.6666666666666665 C11.333333333333332 1 9.975333333333333 0 8 0 C6.109999999999999 0 4.666666666666666 1 4.666666666666666 3.6666666666666665 C4.666666666666666 4 4 4.666666666666666 4 5.333333333333333 C4 6 4.476666666666667 6.438666666666666 4.666666666666666 6.666666666666666 C4.666666666666666 6.666666666666666 4.666666666666666 7.333333333333333 5 8.333333333333332 C5 8.666666666666666 5.666666666666666 9 6 9.333333333333332 C6 9.666666666666666 6 10 5.666666666666666 10.666666666666666 C5.666666666666666 10.666666666666666 2 11.333333333333332 2 11.333333333333332 C0.6666666666666666 11.666666666666666 0 14 0 16 C0 16 16 16 16 16 C16 14 15.333333333333332 11.666666666666666 14 11.333333333333332 Z"></path></defs> <path d="M14 11.333333333333329 C14 11.333333333333329 10.333333333333332 10.666666666666671 10.333333333333332 10.666666666666671 C10 10 10.001333333333335 9.709999999999994 10 9.333333333333329 C10.333333333333332 9 11 8.666666666666671 11 8.333333333333329 C11.333333333333332 7.333333333333329 11.333333333333332 6.666666666666671 11.333333333333332 6.666666666666671 C11.506 6.417333333333332 12 6 12 5.333333333333329 C12 4.666666666666671 11.333333333333332 4 11.333333333333332 3.6666666666666714 C11.333333333333332 1 9.975333333333332 0 8 0 C6.109999999999999 0 4.666666666666664 1 4.666666666666664 3.6666666666666714 C4.666666666666664 4 4 4.666666666666671 4 5.333333333333329 C4 6 4.476666666666667 6.438666666666663 4.666666666666664 6.666666666666671 C4.666666666666664 6.666666666666671 4.666666666666664 7.333333333333329 5 8.333333333333329 C5 8.666666666666671 5.666666666666664 9 6 9.333333333333329 C6 9.666666666666671 6 10 5.666666666666664 10.666666666666671 C5.666666666666664 10.666666666666671 2 11.333333333333329 2 11.333333333333329 C0.6666666666666679 11.666666666666671 0 14 0 16 C0 16 16 16 16 16 C16 14 15.333333333333329 11.666666666666671 14 11.333333333333329 Z" style="stroke-width: 0; stroke-linecap: butt; stroke-linejoin: miter; fill: rgb(23, 43, 77);"></path></g></svg>