<svg height="16" overflow="visible" viewBox="0 0 16 16" width="16" xmlns="http://www.w3.org/2000/svg"><g><defs><path id="path-1683618393228261" d="M0,11.55556h2.66667v-2.66667h-2.66667zM0,2.66667h2.66667v-2.66667h-2.66667zM0,16h2.66667v-2.66667h-2.66667zM0,7.11111h2.66667v-2.66667h-2.66667zM5.33333,16h10.66667v-2.66667h-10.66667zM5.33333,0v2.66667h10.66667v-2.66667zM5.33333,7.11111h10.66667v-2.66667h-10.66667zM5.33333,11.55556h10.66667v-2.66667h-10.66667z"></path></defs><path d="M0,11.55556h2.66667v-2.66667h-2.66667zM0,2.66667h2.66667v-2.66667h-2.66667zM0,16h2.66667v-2.66667h-2.66667zM0,7.11111h2.66667v-2.66667h-2.66667zM5.33333,16h10.66667v-2.66667h-10.66667zM5.33333,0v2.66667h10.66667v-2.66667zM5.33333,7.11111h10.66667v-2.66667h-10.66667zM5.33333,11.55556h10.66667v-2.66667h-10.66667z" style="stroke-width: 0; stroke-linecap: butt; stroke-linejoin: miter; fill: rgb(23, 43, 77);" transform="translate(0, 0) rotate(0)"></path></g></svg>