<svg height="18.73499870300293" overflow="visible" viewBox="0 0 18.74001884460446 18.73499870300293" width="18.74001884460446" xmlns="http://www.w3.org/2000/svg"><g><defs><path id="path-168361854736512205" d="M13.1125,16.4425c-2.32,1.21 -5.09,1.21 -7.41,0c-1.12,-0.59 -2.09,-1.43 -2.82,-2.47c0.11,-0.95 0.42,-1.86 0.91,-2.68c0.41,-0.68 1.12,-1.14 1.91,-1.23c1.86,2.04 5.02,2.19 7.06,0.33c0.11,-0.1 0.22,-0.21 0.33,-0.33c0.8,0.09 1.5,0.55 1.92,1.23c0.49,0.82 0.8,1.73 0.91,2.68c-0.73,1.04 -1.69,1.89 -2.81,2.47zM12.2325,9.5225c-0.74,0.76 -1.77,1.19 -2.83,1.17c-2.21,0 -4,-1.79 -4,-4c0,-2.21 1.79,-4 4,-4c2.21,0 4,1.79 4,4c0.02,1.07 -0.4,2.09 -1.17,2.83zM17.9925,5.7425c-0.93,-2.27 -2.73,-4.07 -5,-5c-2.32,-0.99 -4.93,-0.99 -7.25,0c-2.27,0.93 -4.07,2.73 -5,5c-0.99,2.32 -0.99,4.93 0,7.25c0.93,2.27 2.73,4.07 5,5c2.32,0.99 4.94,0.99 7.26,0c1.12,-0.46 2.14,-1.14 3,-2c0.85,-0.86 1.53,-1.88 2,-3c0.99,-2.31 0.98,-4.93 -0.01,-7.25z"></path></defs><path d="M13.1125,16.4425c-2.32,1.21 -5.09,1.21 -7.41,0c-1.12,-0.59 -2.09,-1.43 -2.82,-2.47c0.11,-0.95 0.42,-1.86 0.91,-2.68c0.41,-0.68 1.12,-1.14 1.91,-1.23c1.86,2.04 5.02,2.19 7.06,0.33c0.11,-0.1 0.22,-0.21 0.33,-0.33c0.8,0.09 1.5,0.55 1.92,1.23c0.49,0.82 0.8,1.73 0.91,2.68c-0.73,1.04 -1.69,1.89 -2.81,2.47zM12.2325,9.5225c-0.74,0.76 -1.77,1.19 -2.83,1.17c-2.21,0 -4,-1.79 -4,-4c0,-2.21 1.79,-4 4,-4c2.21,0 4,1.79 4,4c0.02,1.07 -0.4,2.09 -1.17,2.83zM17.9925,5.7425c-0.93,-2.27 -2.73,-4.07 -5,-5c-2.32,-0.99 -4.93,-0.99 -7.25,0c-2.27,0.93 -4.07,2.73 -5,5c-0.99,2.32 -0.99,4.93 0,7.25c0.93,2.27 2.73,4.07 5,5c2.32,0.99 4.94,0.99 7.26,0c1.12,-0.46 2.14,-1.14 3,-2c0.85,-0.86 1.53,-1.88 2,-3c0.99,-2.31 0.98,-4.93 -0.01,-7.25z" style="stroke-width: 0; stroke-linecap: butt; stroke-linejoin: miter; fill: rgba(26, 26, 99, 0.52);" transform="translate(0, 0) rotate(0)"></path></g></svg>